<svg xmlns="http://www.w3.org/2000/svg" version="1.1" xmlnsXlink="http://www.w3.org/1999/xlink" xmlnsSvgjs="http://svgjs.dev/svgjs" width="1000" height="660" viewBox="0 0 1000 660"><g transform="matrix(1,0,0,1,-0.5014747263217032,0.26769990650467435)"><svg viewBox="0 0 374 247" data-background-color="#ffffff" preserveAspectRatio="xMidYMid meet" height="660" width="1000" xmlns="http://www.w3.org/2000/svg" xmlnsXlink="http://www.w3.org/1999/xlink"><g id="tight-bounds" transform="matrix(1,0,0,1,0.1877524515772393,-0.09997365579206985)"><svg viewBox="0 0 373.624604253798 247.2" height="247.2" width="373.624604253798"><g><svg viewBox="0 0 373.624604253798 247.2" height="247.2" width="373.624604253798"><g><svg viewBox="0 0 373.624604253798 247.2" height="247.2" width="373.624604253798"><g id="textblocktransform"><svg viewBox="0 0 373.624604253798 247.2" height="247.2" width="373.624604253798" id="textblock"><g><svg viewBox="0 0 373.624604253798 247.2" height="247.2" width="373.624604253798"><path d="M372.75 53.02C370.993 27.36 365.987 20.227 365.987 20.227 350.618-6.202 331.437-0.506 314.206 3.292 283.784 3.446 253.484 9.091 223.132 12.119 159.424 12.581 95.172 4.986 31.78 23.717 25.826 29.464-6.178 24.846 1.059 56.304 2.956 69.39 9.877 83.913 9.666 95.922 10.614 98.026 11.932 93.202 12.494 96.23 14.461 104.39 17.676 100.541 20.31 105.365 16.639 118.246 19.274 128.971 21.786 140.21 17.359 143.135 11.686 141.749 9.139 151.449 8.876 158.479 7.453 157.145 5.889 156.837 4.748 156.632 2.447 157.402 2.833 159.608 4.151 167.152-1.505 171.514 2.043 178.904-0.399 186.91 3.729 193.838 3.167 202.511 3.097 204.255 3.483 205.744 4.098 206.154 6.82 208.361 2.851 212.672 3.272 217.342 31.201 249.262 61.5 227.195 90.113 241.872 97.543 231.608 91.957 245.516 94.926 243.36 97.245 240.846 98.931 251.263 101.548 245.362 101.952 243.668 101.337 239.665 102.777 240.435 103.533 240.846 104.2 240.743 104.306 238.382 104.464 234.841 103.076 237.048 102.707 235.201 106.694 225.861 105.711 248.081 109.452 247.158 109.276 244.438 108.187 240.538 110.418 241.051 112.631 237.151 112.702 233.918 114.669 242.693 114.739 244.592 115.09 245.926 115.653 246.85 121.8 237.305 127.913 250.237 134.359 245.926 138.311 241.205 142.105 248.492 146.11 246.696 147.515 245.259 148.938 242.693 150.29 247.004 166.854 247.928 184.507 244.079 200.21 247.158 242.172 241.41 287.016 249.518 331.262 241.923 341.695 238.998 352.533 234.841 362.703 231.506 362.703 231.506 370.941 222.371 370.941 181.316S372.697 145.393 372.961 112.703C373.224 80.013 374.454 78.679 372.697 53.02Z" opacity="1" fill="#3d3839" data-fill-palette-color="tertiary"></path><g transform="matrix(1,0,0,1,55.768319999999974,26.230666666666668)"><svg width="262.087964253798" viewBox="1.2999999523162842 -37 50.20000076293945 37.29999923706055" height="194.73866666666666" data-palette-color="#ffffff"><path d="M7.4 0.3L7.4 0.3Q5.75 0.3 4.08 0 2.4-0.3 1.3-0.7L1.3-0.7 1.3-6.6Q2.35-6.5 3.5-6.43 4.65-6.35 5.7-6.35L5.7-6.35Q7-6.35 7.88-6.75 8.75-7.15 9.18-7.98 9.6-8.8 9.6-10.2L9.6-10.2 9.6-37 17-37 17-9.1Q17-5.95 16.03-3.85 15.05-1.75 12.93-0.73 10.8 0.3 7.4 0.3ZM30.8 0L23.4 0 23.4-37 30.8-37 30.8-21.7 35.7-21.7 43.3-37 51.2-37 41.6-18.4 51.5 0 43.6 0 35.7-15 30.8-15 30.8 0Z" opacity="1" transform="matrix(1,0,0,1,0,0)" fill="#ffffff" class="wordmark-text-0" data-fill-palette-color="quaternary" id="text-0"></path></svg></g></svg></g></svg></g></svg></g><g></g></svg></g><defs></defs></svg><rect width="373.624604253798" height="247.2" fill="none" stroke="none" visibility="hidden"></rect></g></svg></g></svg>